<svg width="256" height="256" viewBox="0 0 256 256" fill="none" xmlns="http://www.w3.org/2000/svg">
<g clip-path="url(#clip0_272_146)">
<path d="M142.8 77.5998C139.8 76.3998 135 75.5998 129 75.3998C120.6 75.1998 111 76.1998 110.6 76.3998V116.4C137.2 117.6 141.6 113 141.6 113C164.8 101.2 150.2 80.5998 142.8 77.5998Z" fill="#75AADB"/>
<path d="M128 0C57.2 0 0 57.2 0 128C0 198.8 57.2 256 128 256C198.8 256 256 198.8 256 128C256 57.2 198.6 0 128 0ZM185.2 179.6H164L128.8 127H110.8V168H128.8V179.6H83V168.2L98.2 168L98 76.2C96.4 75.8 83 74.6 83 74.6V64C85 66 98.8 66.4 98.8 66.4C102 66.6 106.6 66.8 109.2 66.2C127.8 62.8 142 65.4 142 65.4C170 71.8 170.4 97 162.6 110.6C155.6 122.2 142 125 142 125L170.8 168.6L185.2 168.4V179.6Z" fill="#75AADB"/>
<path d="M83.1899 174.146V168.694L86.8299 168.412C89.3276 168.237 91.8302 168.141 94.3339 168.124H98.1959V75.9921L96.3199 75.7381C95.2879 75.5981 91.9119 75.2421 88.8159 74.9441L83.1899 74.4041V69.3841C83.1899 64.7201 83.2439 64.3941 83.9699 64.7841C87.1359 66.4781 105.37 66.9241 115.63 65.5601C124.034 64.4441 138.62 64.7101 143.7 66.0741C154.666 69.0181 161.92 75.3661 165.348 85.0201C166.782 89.0561 166.982 96.7141 165.78 101.468C163.974 108.612 161 113.564 156.05 117.67C153.086 120.13 146.356 123.73 143.76 124.25C142.966 124.408 142.216 124.698 142.096 124.892C141.976 125.088 148.342 135.036 156.246 147L170.614 168.752L177.88 168.616L185.148 168.48V179.6L174.664 179.584L164.184 179.57L146.544 153.102L128.91 126.634H110.554V168.122H128.652V179.6H83.1899V174.146ZM133.506 115.822C140.458 114.722 148.036 110.274 151.452 105.296C156.474 97.9701 154.526 87.3161 146.864 80.2021C144.15 77.6821 142.454 76.9421 137.276 76.0021C133.028 75.2301 119.956 75.0941 113.864 75.7581L110.776 76.0941L110.66 96.2601L110.546 116.424L111.986 116.636C114.718 117.036 129.326 116.486 133.506 115.822Z" fill="white" stroke="white" stroke-width="0.788"/>
</g>
<defs>
<clipPath id="clip0_272_146">
<rect width="256" height="256" fill="white"/>
</clipPath>
</defs>
</svg>
