<svg width="320" height="256" viewBox="0 0 320 256" fill="none" xmlns="http://www.w3.org/2000/svg">
<path opacity="0.9" d="M33.2902 140.82H33.2537C31.5553 140.783 32.7119 140.82 33.2902 140.82ZM33.2537 140.82H32.9151H33.7903H33.7017H33.2902C33.5871 140.82 33.733 140.857 33.2537 140.82ZM33.7017 140.82C51.9043 141.311 70.8883 136.348 76.4209 110.867C80 94.4145 71.0394 82.4772 63.1155 70.4234C63.065 70.3537 63.0277 70.2721 63.0061 70.1841C62.7039 68.6567 54.1184 59.3511 51.7167 55.8545C51.6912 55.8172 51.6614 55.7841 51.6282 55.7564C50.4872 54.781 49.2838 49.8184 48.7055 47.0703C48.4665 45.9266 48.4434 44.7352 48.6378 43.5799C50.7217 31.0967 51.8626 21.9076 65.9652 24.6557C76.0979 26.6309 70.857 44.132 76.3063 45.8864H76.4314C79.7134 46.2606 86.1109 36.9856 87.0434 33.8694C90.6902 21.7358 69.6536 14.2888 63.2457 14.7611C50.3987 15.7058 41.9382 23.9257 36.7806 37.4579C27.273 62.4366 45.0327 79.0297 55.7594 96.1689C63.8709 109.131 63.5114 120.645 53.5453 131.748C42.605 143.961 29.883 127.178 28.4347 115.338C27.1115 104.487 27.2365 96.9356 19.5366 110.713C12.4723 123.454 19.7971 140.127 33.7017 140.82ZM319.999 81.5509C320 81.5816 320 81.6123 319.999 81.6429C319.805 84.283 319.306 86.8794 318.514 89.3598C317.17 93.5538 315.439 97.561 313.351 101.309C310.798 105.91 309.449 107.75 306.803 111.805C301.817 119.448 297.946 125.172 292.106 132.465C283.974 142.593 274.914 154.193 265.016 162.462C250.872 174.35 233.081 177.626 216.191 179.466C166.788 184.76 94.1338 192.605 78.8382 255.531C78.809 255.653 78.75 255.762 78.6684 255.844C78.5868 255.927 78.4863 255.979 78.3796 255.995C78.2728 256.011 78.1645 255.989 78.0682 255.933C77.9718 255.876 77.8918 255.788 77.838 255.678C62.8446 225.473 30.6124 203.347 0.667243 204.389C0.529074 204.43 0.382842 204.404 0.260717 204.318C0.138592 204.232 0.0505773 204.092 0.0160351 203.929C-0.0185071 203.767 0.00325278 203.594 0.0765279 203.451C0.149803 203.307 0.268591 203.203 0.40676 203.163C77.4212 158.131 156.071 179.724 239.202 162.235C259.983 157.861 277.431 141.832 290.012 122.515C294.779 115.197 300.952 109.02 305.162 101.23C305.854 99.9537 309.329 89.7095 303.922 94.0341C295.524 100.727 288.454 108.996 279.327 114.228C278.931 114.455 278.467 114.688 277.962 114.927C277.886 114.963 277.818 115.018 277.762 115.088C277.706 115.158 277.664 115.241 277.639 115.332C276.337 120.363 274.497 125.178 272.164 129.662C269.384 134.774 265.682 139.103 261.322 142.341C257.233 145.5 252.529 147.385 247.652 147.819C246.98 147.868 246.324 147.893 245.678 147.893C241.817 147.893 239.338 147.525 236.373 145.715C232.56 143.39 231.377 139.581 231.132 134.968C230.986 132.232 232.456 129.196 233.643 126.92C234.831 124.644 236.769 122.141 238.139 121.442L238.233 121.381C245.006 115.461 256.529 115.038 264.36 112.578C264.453 112.552 264.539 112.495 264.607 112.415C264.675 112.335 264.723 112.234 264.745 112.124L268.657 95.2917C268.692 95.1446 268.681 94.988 268.626 94.8496C268.572 94.7113 268.477 94.6002 268.36 94.5362C268.242 94.4721 268.109 94.4593 267.984 94.4999C267.86 94.5405 267.751 94.6319 267.678 94.758C265.695 98.1792 263.51 101.432 261.14 104.493C258.077 108.327 255.691 110.627 253.846 111.517C251.78 112.452 249.598 112.989 247.386 113.106C244.756 113.302 242.547 112.075 240.822 109.462C239.098 106.849 238.186 103.088 237.962 98.0521C237.926 97.2301 237.915 96.3406 237.936 95.3837C237.946 95.2331 237.91 95.0834 237.836 94.9606C237.761 94.8378 237.652 94.7497 237.528 94.7117C237.404 94.6737 237.273 94.6883 237.157 94.7528C237.041 94.8173 236.948 94.9277 236.894 95.0647C236.033 96.9622 235.199 98.7289 234.394 100.365C231.926 105.381 228.908 109.993 225.417 114.081C221.953 118.111 218.645 120.27 215.592 120.503C209.835 120.939 206.699 117.044 206.267 108.977C205.845 101.248 208.481 85.3358 214.081 61.6698C214.372 60.6412 214.491 59.5557 214.43 58.4739C214.316 56.3391 213.289 55.4681 211.164 55.6214C208.693 55.8755 206.353 57.0387 204.474 58.9462C202.076 61.3483 200.101 64.2805 198.66 67.5771C196.96 71.2603 195.421 75.044 194.05 78.9132C192.58 83.1727 191.374 87.5517 190.44 92.016C189.372 96.9602 188.528 101.125 187.934 104.383C187.324 107.738 186.73 111.308 186.168 115.007C185.772 117.584 185.282 120.761 185.188 121.258L185.095 121.73L170.784 122.804L170.747 122.19C170.669 120.724 171.659 115.504 173.753 106.37C173.336 107.253 172.925 108.112 172.524 108.928C170.061 113.944 167.048 118.555 163.563 122.644C160.104 126.674 156.79 128.834 153.738 129.067C153.519 129.067 153.305 129.067 153.097 129.067C148.023 129.067 145.194 124.393 144.699 115.179C144.598 113.347 144.56 111.48 144.584 109.578C144.62 109.416 144.6 109.243 144.527 109.098C144.455 108.953 144.337 108.848 144.199 108.805C144.06 108.763 143.914 108.787 143.791 108.872C143.668 108.957 143.578 109.097 143.542 109.259C135.707 126.257 128.632 134.809 122.063 135.299C116.301 135.741 113.159 131.662 112.685 123.239C112.164 113.86 114.379 100.125 119.218 82.422C120.26 78.0667 120.713 75.0609 120.63 73.466C120.5 71.0123 119.557 70.6994 118.749 70.6994H118.546C117.859 70.7485 116.395 71.2822 113.337 73.5089C110.647 75.5653 108.288 78.1678 106.371 81.1951C104.13 84.653 102.34 88.4864 101.063 92.568C99.6977 96.862 98.6037 100.604 97.8118 103.726C97.0199 106.849 96.2489 110.701 95.4727 115.16C94.6964 119.62 93.9931 123.405 93.3888 126.202C92.7845 128.999 92.1385 132.293 91.5081 136.017L91.4248 136.502L77.6504 137.532C77.5626 137.539 77.4747 137.521 77.394 137.48C77.3134 137.438 77.2425 137.374 77.1872 137.294C77.132 137.213 77.0941 137.118 77.0768 137.016C77.0595 136.915 77.0633 136.81 77.0878 136.71C79.1143 128.404 81.9849 114.983 85.6316 96.8375C89.2784 78.6924 92.5709 64.1419 95.2903 53.6769C97.608 44.5819 100.392 35.6607 103.626 26.9622C106.133 20.1841 109.507 13.8974 113.628 8.32018C117.536 3.17354 121.886 0.388592 126.559 0.0328051C131.451 -0.341384 134.081 2.48651 134.41 8.46741C134.623 12.4424 133.644 17.8221 131.492 24.4594C127.569 36.3169 121.042 50.0761 112.06 65.4608C111.961 65.5828 111.908 65.746 111.911 65.9146C111.915 66.0831 111.975 66.2431 112.078 66.3594C112.182 66.4758 112.321 66.5389 112.464 66.5348C112.607 66.5308 112.743 66.46 112.842 66.338C114.413 64.9091 116.088 63.6467 117.848 62.5654C120.47 60.9785 123.333 60.0194 126.272 59.7436C131.852 59.3265 134.837 62.3262 135.181 68.6322C135.323 70.9463 135.109 73.2715 134.55 75.4964C134.019 77.5412 133.434 79.8967 132.795 82.5631C132.156 85.2294 131.635 87.4071 131.232 89.0961C130.815 90.7952 130.273 93.0833 129.601 95.9787C128.929 98.8741 128.419 101.346 128.075 103.34C127.163 108.327 126.783 112.308 126.939 115.197C127.137 118.878 128.387 118.878 128.799 118.878H128.94C134.191 118.485 140.401 107.714 147.439 86.8571C147.47 86.7466 147.507 86.6669 147.543 86.5687C149.145 79.6908 151.181 72.9632 153.633 66.4423C156.54 58.891 160.114 54.916 164.261 54.6031L172.565 54.1308C172.678 54.1235 172.789 54.1572 172.885 54.2274C172.98 54.2976 173.055 54.4008 173.099 54.523C173.143 54.6451 173.154 54.7802 173.13 54.9098C173.106 55.0395 173.049 55.1573 172.966 55.2472H172.94C171.617 56.7011 169.903 60.6454 167.851 66.9759C165.636 73.8034 164.157 78.4408 163.162 81.5693C162.151 84.8143 161.031 89.2555 159.817 94.7702C158.603 100.285 158.103 104.702 158.286 108.051C158.52 112.406 159.968 112.406 160.442 112.406H160.599C161.328 112.351 162.683 111.731 165.115 109.094C166.989 107.089 168.621 104.792 169.966 102.266C171.19 99.9107 172.57 96.8559 174.076 93.1937C175.582 89.5316 176.884 86.3356 177.983 83.6366C179.155 80.7535 179.65 79.7597 179.963 79.4101L180.651 77.9317C183.219 65.8043 184.391 57.247 184.136 52.5236C184.134 51.7157 183.972 50.9195 183.662 50.1987C183.611 50.1043 183.582 49.9958 183.577 49.8841C183.573 49.7724 183.593 49.6613 183.636 49.5616C183.68 49.4619 183.744 49.3772 183.823 49.3158C183.903 49.2543 183.994 49.2182 184.089 49.2111L189.872 48.7756C193.253 48.5241 195.389 48.8063 196.472 49.6589C197.008 50.0695 197.452 50.6263 197.766 51.282C198.08 51.9378 198.254 52.6731 198.275 53.4254C198.286 54.9277 198.17 56.4276 197.931 57.9034C197.912 58.0395 197.931 58.1791 197.984 58.3018C198.038 58.4244 198.124 58.5236 198.229 58.5847C198.333 58.6458 198.452 58.6657 198.568 58.6413C198.683 58.6169 198.788 58.5496 198.869 58.4493C205.36 50.4748 212.169 46.1808 219.15 45.6839C224.74 45.2607 227.725 48.3891 228.079 54.9282C228.188 57.024 228.063 59.1274 227.71 61.1852C227.355 63.2647 226.438 67.3194 224.912 73.558C221.625 86.9736 220.077 96.0032 220.317 100.414C220.489 103.53 221.515 103.886 222.276 103.886H222.443C223.167 103.831 224.526 103.199 226.949 100.493C228.822 98.4345 230.475 96.1151 231.872 93.5863C233.392 90.6776 234.783 87.678 236.04 84.5996C237.53 81.0234 238.822 77.852 239.874 75.1529C240.254 74.1775 240.562 73.4292 240.812 72.8341C240.83 72.7932 240.844 72.75 240.854 72.7053C242.364 65.2093 244.141 59.0075 246.141 54.2596C248.512 48.6345 251.143 44.8619 253.956 43.0585C256.769 41.255 260.645 40.1754 265.568 39.8012C265.723 39.7839 265.88 39.8053 266.027 39.864C266.175 39.9227 266.31 40.0173 266.425 40.1417C266.539 40.2662 266.63 40.4176 266.692 40.5861C266.753 40.7547 266.784 40.9366 266.782 41.12C266.818 41.7764 266.537 42.5371 265.922 43.4327C262.437 47.9168 259.03 55.8238 255.769 66.9821C252.508 78.1403 251.08 87.5625 251.46 95.0095C251.648 98.4569 252.388 100.205 253.648 100.205H253.773C256.858 99.9721 260.734 95.4634 265.282 86.808C269.674 78.5979 273.167 69.7659 275.675 60.5227C275.977 59.2958 276.409 57.566 276.977 55.2718C277.545 52.9776 277.946 51.3827 278.181 50.53C278.415 49.6773 278.806 48.4198 279.316 46.9292C279.669 45.7241 280.187 44.5949 280.848 43.586C281.279 43.0135 281.867 42.2794 282.614 41.3838C283.319 40.4912 284.202 39.8188 285.183 39.427C287.627 38.5484 290.146 37.9909 292.695 37.7646L298.478 37.3291C298.595 37.3199 298.711 37.3553 298.81 37.43C298.909 37.5048 298.984 37.6149 299.026 37.7442C299.067 37.8735 299.072 38.015 299.04 38.1479C299.008 38.2808 298.941 38.3981 298.847 38.4823L298.733 38.5866C296.128 40.9483 293.57 46.6654 291.163 55.5785C289.204 63.1175 287.516 70.0983 286.219 76.3123C284.922 82.5263 284.083 86.3111 283.792 87.6361C283.5 88.9611 282.791 92.3227 281.76 97.3098C280.978 101.089 280.296 104.248 279.723 106.757C279.675 106.884 279.665 107.026 279.694 107.16C279.724 107.295 279.792 107.414 279.886 107.497C279.98 107.581 280.096 107.624 280.214 107.62C280.332 107.615 280.446 107.564 280.536 107.474C286.192 103.457 291.436 98.6858 296.165 93.2551C298.832 90.1021 318.983 63.7493 319.941 80.5142L319.999 81.5509ZM127.074 5.74993C125.032 5.90328 121.464 9.53476 116.02 25.993C112.253 37.372 108.601 50.303 105.131 64.5161C105.101 64.6626 105.115 64.817 105.171 64.9528C105.227 65.0885 105.321 65.1972 105.437 65.2603C105.553 65.3233 105.685 65.3368 105.809 65.2984C105.932 65.26 106.041 65.1721 106.116 65.0498C115.493 48.2112 121.99 34.1331 125.439 23.1467C127.564 15.6322 128.564 10.6941 128.465 8.48581C128.32 5.7622 127.45 5.7622 127.168 5.7622L127.074 5.74993ZM262.369 121.375C262.401 121.266 262.408 121.15 262.389 121.037C262.37 120.925 262.326 120.82 262.261 120.734C262.197 120.649 262.113 120.585 262.021 120.55C261.928 120.515 261.829 120.509 261.734 120.534C258.931 121.233 256.097 121.761 253.331 122.565C249.408 123.663 243.474 124.797 240.442 128.619C240.399 128.673 240.364 128.736 240.338 128.803C239.817 130.134 239.692 132.3 239.817 134.993C239.921 136.894 241.489 138.642 242.838 139.949C244.093 141.127 245.692 141.676 247.287 141.476C253.461 141.01 258.509 134.244 262.369 121.375ZM169.205 42.4021H169.252C172.56 42.1997 176.707 40.7581 177.681 34.906C178.14 32.2744 176.796 29.2564 175.946 28.3792C175.097 27.502 173.956 27.1523 172.471 27.2689C170.987 27.3854 169.148 28.4957 167.418 30.3851C165.136 32.8879 165.204 36.5194 165.954 38.9056C166.631 41.0035 167.877 42.3469 169.205 42.4021Z" fill="#428BCA"/>
</svg>
