<svg width="256" height="256" viewBox="0 0 256 256" fill="none" xmlns="http://www.w3.org/2000/svg">
<path d="M219.532 14.5622C219.659 17.5687 218.901 20.5463 217.352 23.1262C215.808 25.6935 213.538 27.7458 210.828 29.0242C208.123 30.294 205.1 30.7259 202.148 30.2642C199.191 29.8034 196.439 28.4713 194.242 26.4382C192.037 24.3928 190.484 21.7421 189.778 18.818C189.072 15.8939 189.245 12.8266 190.274 10.0002C191.292 7.17942 193.122 4.72249 195.532 2.93825C197.937 1.16265 200.818 0.145226 203.804 0.0162486C205.786 -0.0672543 207.764 0.242517 209.625 0.927686C211.487 1.61285 213.194 2.65985 214.648 4.00825C217.601 6.74271 219.354 10.5333 219.524 14.5542L219.532 14.5622Z" fill="#767677"/>
<path d="M131.516 193.58C91.3199 193.58 56.2179 178.852 37.9839 157.046C44.7452 176.57 57.394 193.517 74.1879 205.554C90.9116 217.535 110.967 223.98 131.54 223.984C152.112 223.976 172.165 217.532 188.89 205.554C205.681 193.518 218.325 176.57 225.078 157.046C206.812 178.852 171.71 193.58 131.516 193.58ZM131.5 51.7656C171.696 51.7656 206.804 66.4996 225.032 88.2956C218.27 68.7721 205.622 51.8254 188.828 39.7896C172.107 27.8082 152.055 21.3601 131.484 21.3496C110.913 21.3601 90.8613 27.8082 74.1399 39.7896C57.344 51.8221 44.6957 68.7701 37.9399 88.2956C56.2039 66.5396 91.3039 51.7656 131.5 51.7656Z" fill="#F37726"/>
<path d="M76.3282 235.968C76.493 239.759 75.5394 243.514 73.5862 246.766C71.6453 250.003 68.7845 252.588 65.3686 254.192C61.9527 255.797 58.1363 256.347 54.4062 255.774C50.6762 255.198 47.2058 253.513 44.4462 250.938C41.675 248.359 39.7216 245.023 38.8282 241.344C37.9462 237.651 38.1638 233.781 39.4542 230.21C40.7485 226.651 43.0638 223.553 46.1102 221.304C49.6585 218.697 54.0046 217.408 58.4008 217.659C62.7969 217.91 66.968 219.686 70.1962 222.68C73.9109 226.132 76.1143 230.91 76.3282 235.976V235.968Z" fill="#989798"/>
<path d="M42.5702 46.8362C40.3608 46.9323 38.1733 46.3638 36.2902 45.2042C34.3944 44.0421 32.8853 42.3445 31.9534 40.3255C31.0215 38.3066 30.7086 36.0568 31.0542 33.8602C31.3861 31.6579 32.3656 29.6041 33.8682 27.9602C35.3575 26.3235 37.2987 25.1654 39.4462 24.6322C41.5923 24.0961 43.8507 24.2244 45.9222 25.0002C48.0012 25.7661 49.8028 27.1378 51.0942 28.9382C52.6193 31.0448 53.3725 33.6123 53.2272 36.2089C53.0818 38.8055 52.0468 41.2729 50.2962 43.1962C49.3111 44.2833 48.1206 45.1647 46.7932 45.7894C45.4658 46.4142 44.0278 46.7699 42.5622 46.8362H42.5702Z" fill="#6F7070"/>
<path d="M38.3644 131.018C38.3644 138.496 37.767 140.932 36.2306 142.727C34.5208 144.269 32.301 145.122 30 145.12L30.5975 149.394C34.1647 149.442 37.6261 148.18 40.3275 145.847C41.781 144.072 42.8627 142.022 43.5079 139.819C44.1531 137.616 44.3487 135.306 44.083 133.026V104.735H38.3644V130.847V131.018Z" fill="#4E4E4E"/>
<path d="M81.0118 127.647C81.0118 130.852 81.0118 133.715 81.2678 136.194H76.1894L75.848 131.108C74.7858 132.908 73.2667 134.393 71.4453 135.414C69.6238 136.435 67.5648 136.955 65.4778 136.92C60.5274 136.92 54.6382 134.228 54.6382 123.245V104.997H60.3567V122.091C60.3567 128.031 62.1918 132.006 67.3556 132.006C68.4179 132.017 69.4719 131.816 70.4556 131.414C71.4394 131.012 72.333 130.418 73.0843 129.665C73.8355 128.913 74.4293 128.018 74.8306 127.033C75.2318 126.048 75.4327 124.993 75.4213 123.929V104.783H81.1398V127.476L81.0118 127.647Z" fill="#4E4E4E"/>
<path d="M91.8508 115.165C91.8508 111.19 91.8508 107.943 91.5947 104.994H96.7158L96.9718 110.336C98.1128 108.406 99.7554 106.822 101.724 105.753C103.694 104.685 105.915 104.171 108.153 104.267C115.749 104.267 121.468 110.635 121.468 120.122C121.468 131.319 114.597 136.874 107.171 136.874C105.271 136.959 103.38 136.552 101.683 135.691C99.9863 134.83 98.5398 133.545 97.484 131.96V149.054H91.8508V115.293V115.165ZM97.484 123.498C97.4995 124.274 97.5852 125.046 97.74 125.806C98.2242 127.703 99.3265 129.385 100.872 130.585C102.418 131.785 104.319 132.434 106.275 132.43C112.292 132.43 115.835 127.515 115.835 120.379C115.835 114.139 112.506 108.797 106.489 108.797C104.107 108.993 101.879 110.051 100.221 111.774C98.5635 113.497 97.5903 115.766 97.484 118.156V123.498Z" fill="#4E4E4E"/>
<path d="M131.657 104.964L138.528 123.383C139.253 125.435 140.021 127.913 140.533 129.751C141.131 127.871 141.771 125.477 142.539 123.255L148.77 104.964H154.787L146.252 127.187C141.984 137.871 139.381 143.384 135.455 146.717C133.477 148.526 131.066 149.792 128.456 150.392L127.048 145.606C128.873 145.005 130.567 144.063 132.041 142.828C134.123 141.129 135.775 138.962 136.863 136.503C137.096 136.077 137.255 135.615 137.333 135.136C137.284 134.62 137.155 134.115 136.949 133.64L125.341 104.879H131.571L131.657 104.964Z" fill="#4E4E4E"/>
<path d="M169.967 96V104.974H178.161V109.248H169.967V126.086C169.967 129.932 171.077 132.154 174.235 132.154C175.357 132.173 176.476 132.043 177.564 131.77L177.82 136.043C176.188 136.609 174.467 136.87 172.741 136.812C171.599 136.884 170.454 136.707 169.386 136.294C168.318 135.881 167.351 135.241 166.553 134.419C164.815 132.091 164.022 129.19 164.334 126.299V109.205H159.469V104.932H164.42V97.3248L169.967 96Z" fill="#4E4E4E"/>
<path d="M188.695 121.579C188.58 123.028 188.779 124.486 189.281 125.85C189.783 127.214 190.574 128.454 191.601 129.482C192.627 130.51 193.865 131.302 195.227 131.805C196.59 132.307 198.045 132.507 199.492 132.391C202.42 132.457 205.328 131.903 208.027 130.767L209.009 135.041C205.697 136.407 202.135 137.062 198.553 136.964C196.466 137.107 194.372 136.796 192.415 136.053C190.459 135.309 188.686 134.151 187.219 132.657C185.751 131.163 184.624 129.369 183.914 127.398C183.204 125.427 182.928 123.325 183.105 121.237C183.105 111.835 188.695 104.399 197.828 104.399C208.07 104.399 210.631 113.374 210.631 119.1C210.685 119.983 210.685 120.868 210.631 121.75H188.567L188.695 121.579ZM205.424 117.306C205.589 116.163 205.507 114.998 205.184 113.89C204.862 112.782 204.305 111.756 203.553 110.881C202.801 110.006 201.87 109.303 200.824 108.819C199.777 108.335 198.639 108.081 197.487 108.075C195.142 108.245 192.945 109.285 191.327 110.993C189.708 112.701 188.785 114.952 188.738 117.306H205.424Z" fill="#4E4E4E"/>
<path d="M219.307 114.682C219.307 111.007 219.307 107.845 219.051 104.939H224.172V111.05H224.428C224.966 109.164 226.077 107.492 227.606 106.267C229.135 105.041 231.008 104.323 232.964 104.212C233.502 104.141 234.047 104.141 234.585 104.212V109.554C233.933 109.479 233.274 109.479 232.622 109.554C230.685 109.629 228.841 110.408 227.435 111.745C226.03 113.082 225.158 114.886 224.983 116.819C224.824 117.694 224.738 118.58 224.727 119.469V136.093H219.094V114.725L219.307 114.682Z" fill="#4E4E4E"/>
</svg>
