<svg width="256" height="256" viewBox="0 0 256 256" fill="none" xmlns="http://www.w3.org/2000/svg">
<g clip-path="url(#clip0_272_74)">
<mask id="mask0_272_74" style="mask-type:alpha" maskUnits="userSpaceOnUse" x="0" y="0" width="256" height="256">
<path fill-rule="evenodd" clip-rule="evenodd" d="M181.534 254.252C185.566 255.823 190.164 255.722 194.234 253.764L246.94 228.403C252.478 225.738 256 220.132 256 213.983V42.0181C256 35.8689 252.478 30.2638 246.94 27.5988L194.234 2.23681C188.893 -0.333131 182.642 0.296345 177.955 3.70418C177.285 4.191 176.647 4.73454 176.049 5.33354L75.149 97.3862L31.1992 64.0247C27.1079 60.9191 21.3853 61.1735 17.5855 64.63L3.48936 77.4525C-1.15853 81.6805 -1.16386 88.9926 3.47785 93.2274L41.5926 128L3.47785 162.773C-1.16386 167.008 -1.15853 174.32 3.48936 178.548L17.5855 191.37C21.3853 194.827 27.1079 195.081 31.1992 191.976L75.149 158.614L176.049 250.667C177.645 252.264 179.519 253.467 181.534 254.252ZM192.039 69.8853L115.479 128L192.039 186.115V69.8853Z" fill="white"/>
</mask>
<g mask="url(#mask0_272_74)">
<path d="M246.94 27.6381L194.193 2.24123C188.088 -0.698454 180.791 0.54157 175.999 5.33317L3.32371 162.773C-1.32082 167.008 -1.31548 174.32 3.33523 178.548L17.4399 191.37C21.2421 194.827 26.9682 195.081 31.0619 191.976L239.003 34.2267C245.979 28.9345 255.999 33.9101 255.999 42.6665V42.0541C255.999 35.9076 252.478 30.3045 246.94 27.6381Z" fill="#0065A9"/>
<g filter="url(#filter0_d_272_74)">
<path d="M246.94 228.362L194.193 253.759C188.088 256.698 180.791 255.458 175.999 250.667L3.32371 93.2269C-1.32082 88.9922 -1.31548 81.6799 3.33523 77.452L17.4399 64.6295C21.2421 61.173 26.9682 60.9185 31.0619 64.0242L239.003 221.773C245.979 227.065 255.999 222.09 255.999 213.333V213.946C255.999 220.092 252.478 225.695 246.94 228.362Z" fill="#007ACC"/>
</g>
<g filter="url(#filter1_d_272_74)">
<path d="M194.196 253.763C188.089 256.7 180.792 255.459 176 250.667C181.904 256.571 192 252.389 192 244.039V11.9604C192 3.61042 181.904 -0.571328 176 5.33306C180.792 0.541013 188.089 -0.70076 194.196 2.23633L246.934 27.5983C252.476 30.2633 256 35.8684 256 42.0176V213.983C256 220.132 252.476 225.737 246.934 228.402L194.196 253.763Z" fill="#1F9CF0"/>
</g>
<g style="mix-blend-mode:overlay" opacity="0.25">
<path fill-rule="evenodd" clip-rule="evenodd" d="M181.378 254.252C185.41 255.822 190.008 255.722 194.077 253.764L246.783 228.402C252.322 225.737 255.844 220.132 255.844 213.983V42.0176C255.844 35.8684 252.322 30.2633 246.784 27.5983L194.077 2.23633C188.737 -0.33362 182.486 0.295856 177.798 3.70369C177.129 4.19051 176.491 4.73405 175.892 5.33305L74.9927 97.3857L31.0429 64.0242C26.9517 60.9186 21.229 61.1731 17.4292 64.6295L3.33311 77.452C-1.31478 81.68 -1.32011 88.9922 3.3216 93.227L41.4364 128L3.3216 162.773C-1.32011 167.008 -1.31478 174.32 3.33311 178.548L17.4292 191.37C21.229 194.827 26.9517 195.081 31.0429 191.976L74.9927 158.614L175.892 250.667C177.488 252.264 179.363 253.467 181.378 254.252ZM191.883 69.8848L115.323 128L191.883 186.115V69.8848Z" fill="url(#paint0_linear_272_74)"/>
</g>
</g>
</g>
<defs>
<filter id="filter0_d_272_74" x="-21.4897" y="40.5221" width="298.822" height="236.149" filterUnits="userSpaceOnUse" color-interpolation-filters="sRGB">
<feFlood flood-opacity="0" result="BackgroundImageFix"/>
<feColorMatrix in="SourceAlpha" type="matrix" values="0 0 0 0 0 0 0 0 0 0 0 0 0 0 0 0 0 0 127 0" result="hardAlpha"/>
<feOffset/>
<feGaussianBlur stdDeviation="10.6667"/>
<feColorMatrix type="matrix" values="0 0 0 0 0 0 0 0 0 0 0 0 0 0 0 0 0 0 0.25 0"/>
<feBlend mode="overlay" in2="BackgroundImageFix" result="effect1_dropShadow_272_74"/>
<feBlend mode="normal" in="SourceGraphic" in2="effect1_dropShadow_272_74" result="shape"/>
</filter>
<filter id="filter1_d_272_74" x="154.667" y="-20.6737" width="122.667" height="297.347" filterUnits="userSpaceOnUse" color-interpolation-filters="sRGB">
<feFlood flood-opacity="0" result="BackgroundImageFix"/>
<feColorMatrix in="SourceAlpha" type="matrix" values="0 0 0 0 0 0 0 0 0 0 0 0 0 0 0 0 0 0 127 0" result="hardAlpha"/>
<feOffset/>
<feGaussianBlur stdDeviation="10.6667"/>
<feColorMatrix type="matrix" values="0 0 0 0 0 0 0 0 0 0 0 0 0 0 0 0 0 0 0.25 0"/>
<feBlend mode="overlay" in2="BackgroundImageFix" result="effect1_dropShadow_272_74"/>
<feBlend mode="normal" in="SourceGraphic" in2="effect1_dropShadow_272_74" result="shape"/>
</filter>
<linearGradient id="paint0_linear_272_74" x1="127.844" y1="0.659667" x2="127.844" y2="255.34" gradientUnits="userSpaceOnUse">
<stop stop-color="white"/>
<stop offset="1" stop-color="white" stop-opacity="0"/>
</linearGradient>
<clipPath id="clip0_272_74">
<rect width="256" height="256" fill="white"/>
</clipPath>
</defs>
</svg>
